<?xml version="1.0" encoding="UTF-8" standalone="no"?>
<!-- Generator: Adobe Illustrator 24.0.3, SVG Export Plug-In . SVG Version: 6.00 Build 0)  -->

<svg
   version="1.1"
   x="0px"
   y="0px"
   viewBox="0 0 623.7 116.7"
   xml:space="preserve"
   id="svg34"
   sodipodi:docname="BornHack logo.svg"
   width="623.70001"
   height="116.7"
   inkscape:version="1.1.2 (0a00cf5339, 2022-02-04)"
   xmlns:inkscape="http://www.inkscape.org/namespaces/inkscape"
   xmlns:sodipodi="http://sodipodi.sourceforge.net/DTD/sodipodi-0.dtd"
   xmlns="http://www.w3.org/2000/svg"
   xmlns:svg="http://www.w3.org/2000/svg"><defs
   id="defs38" /><sodipodi:namedview
   id="namedview36"
   pagecolor="#ffffff"
   bordercolor="#666666"
   borderopacity="1.0"
   inkscape:pageshadow="2"
   inkscape:pageopacity="0.0"
   inkscape:pagecheckerboard="0"
   showgrid="false"
   fit-margin-top="0"
   fit-margin-left="0"
   fit-margin-right="0"
   fit-margin-bottom="0"
   inkscape:zoom="1.6606642"
   inkscape:cx="311.62229"
   inkscape:cy="68.64723"
   inkscape:window-width="1920"
   inkscape:window-height="1011"
   inkscape:window-x="0"
   inkscape:window-y="0"
   inkscape:window-maximized="1"
   inkscape:current-layer="svg34" />
<g
   id="Guides"
   transform="translate(-63,-25.8)">
</g>
<g
   id="Logo"
   transform="translate(-63,-25.8)">
	<g
   id="g31">
		<g
   id="g7">
			<path fill="#ffffff"
   d="m 394.8,29.1 -22.7,67.9 4.2,-1.6 4.6,12.7 -6.3,1.7 -3.5,-9.6 -1.2,3.7 2.4,6.6 -5,1.3 -1.7,5.1 9.1,25.6 H 436 Z m 28.3,89.4 -10.7,1.5 -5.5,-15.1 10.4,-2.5 z m -28.1,-10.8 8.6,-2 5.3,14.8 -8.8,1.2 z m 1.8,14.5 -7.6,1.1 -4.7,-13 7.4,-1.8 z m 13.4,-39.3 5.8,16.1 -10.3,2.7 -5.5,-15.1 z m -13.1,4.9 5.3,14.8 -8.5,2.2 -5,-13.9 z m -18.2,6.7 7.1,-2.6 4.9,13.6 -7.3,1.9 z m 2.9,16.3 4.6,12.8 -6.6,0.9 -4.4,-12.1 z m -14.4,3.5 5.6,-1.3 4.3,11.9 -5.8,0.8 z m 9.1,25.2 -4.1,-11.5 5.8,-0.7 4.3,12 z m 8.6,-0.2 -4.4,-12.2 29.4,-3.4 5.4,14.9 z m 28.5,-16 10.8,-1.3 5.9,16.2 -11.1,0.3 z"
   id="path3" />
			<path fill="#ffffff"
   d="m 347.4,62.8 -29,79.6 c 10.5,0 23.6,0 35.7,0 L 393.6,25.8 c -19.7,20.6 -29.2,28 -46.2,37 z"
   id="path5" />
		</g>
		<g
   id="g29">
			<g
   id="g17">
				<path fill="#ffffff"
   d="m 559.3,126 h -17.1 l -4.9,-12.4 H 511 L 506.1,126 H 489 l 25.6,-63 h 18.8 z m -44.5,-23.9 h 18.7 l -9.4,-23.2 z"
   id="path9" />
				<path fill="#ffffff"
   d="m 618.7,75.5 -12.4,6.9 c -3.6,-4.6 -8.4,-6.8 -14.2,-6.8 -5.2,0 -9.6,1.8 -13.1,5.5 -3.5,3.7 -5.2,8.1 -5.2,13.4 0,5.3 1.7,9.8 5.2,13.5 3.5,3.7 7.9,5.5 13.1,5.5 5.8,0 10.6,-2.3 14.2,-6.9 l 12.4,7 c -6.1,8.2 -15.9,13.3 -26.7,13.3 -17.9,0.5 -33.6,-14.8 -33.1,-32.4 -0.4,-17.5 15.2,-32.8 33.1,-32.4 10.7,0 20.6,5.1 26.7,13.4 z"
   id="path11" />
				<path fill="#ffffff"
   d="M 685.9,126 H 666.7 L 642.3,97.5 V 126 H 627.9 V 63 h 14.4 V 76.4 L 653.5,88.6 668.3,63 h 18.4 L 663,100.1 Z"
   id="path13" />
				<polygon fill="#ffffff"
   points="438.4,126 441.9,126 441.9,100.7 468.6,100.7 468.6,126 483,126 483,63 468.6,63 468.6,87.8 441.9,87.8 441.9,63 427.6,63 427.6,96.5 "
   id="polygon15" />
			</g>
			<g
   id="g27">
				<path fill="#ffffff"
   d="m 63,63 h 32.6 c 13.2,0 20.6,5.5 20.6,15.9 0,6.9 -3.2,11.6 -9.8,14 8.7,2.4 12.6,8.5 12.6,15.9 0,8.5 -5.2,17.1 -21.7,17.1 H 63 Z m 14.3,26.2 h 14.1 c 6.2,0 9.8,-2.5 9.8,-7.2 0,-4.8 -3.4,-7.3 -9.8,-7.3 H 77.3 Z m 0,25.1 h 16.5 c 7.2,0 10.3,-3.3 10.3,-7.7 0,-4.6 -3.1,-7.8 -10.3,-7.8 H 77.3 Z"
   id="path19" />
				<path fill="#ffffff"
   d="m 158.8,62.1 c 12.1,0 23,6.1 29.1,16.1 3,4.9 4.5,10.4 4.5,16.3 0,11.8 -6.4,22.3 -16.7,28.1 -5.1,2.9 -10.8,4.3 -16.8,4.3 -12.1,0 -23,-6.1 -29.1,-16.1 -3,-4.9 -4.5,-10.4 -4.5,-16.3 0,-11.8 6.4,-22.3 16.7,-28.1 5.1,-2.9 10.8,-4.3 16.8,-4.3 z m -18.7,32.4 c 0,10.5 8,18.9 18.7,18.9 5.3,0 9.8,-1.8 13.3,-5.5 3.5,-3.7 5.3,-8.1 5.3,-13.4 0,-5.3 -1.8,-9.7 -5.3,-13.4 -3.5,-3.7 -8,-5.5 -13.3,-5.5 -10.7,0 -18.7,8.4 -18.7,18.9 z"
   id="path21" />
				<path fill="#ffffff"
   d="m 201.3,63 h 14.3 v 20.3 h 10.2 l 3.4,0.1 13.4,-20.4 h 16.6 l -15,22.3 c 9.1,2.8 13.1,8.9 13.1,19.3 0,15 -8.1,21.3 -28,21.3 H 201.4 V 63 Z m 28.7,50 c 9,0 12.4,-2.7 12.4,-9.3 0,-6.6 -3.4,-9.3 -12.4,-9.3 H 215.7 V 113 Z"
   id="path23" />
				<polygon fill="#ffffff"
   points="281.6,63 267.5,63 267.5,126 282.4,126 311.9,86.4 311.9,126 316,126 325.9,98.8 325.9,63 311,63 281.6,102.6 "
   id="polygon25" />
			</g>
		</g>
	</g>
</g>
</svg>
