<?xml version="1.0" encoding="UTF-8"?>
<svg xmlns="http://www.w3.org/2000/svg" xmlns:xlink="http://www.w3.org/1999/xlink" width="170.08pt" height="62.51pt" viewBox="0 0 170.08 62.51" version="1.1">
<defs>
<clipPath id="clip1">
  <path d="M 0 0 L 170.078125 0 L 170.078125 62.511719 L 0 62.511719 Z M 0 0 "/>
</clipPath>
</defs>
<g id="surface1">
<g clip-path="url(#clip1)" clip-rule="nonzero">
<path style=" stroke:none;fill-rule:nonzero;fill:rgb(100%,96.076965%,42.744446%);fill-opacity:1;" d="M 169.835938 45.972656 C 166.316406 61.195313 125.503906 66.949219 78.664063 58.820313 C 31.835938 50.695313 -3.277344 31.761719 0.242188 16.539063 C 3.761719 1.3125 44.585938 -4.441406 91.414063 3.6875 C 138.25 11.816406 173.355469 30.746094 169.835938 45.972656 "/>
</g>
<path style=" stroke:none;fill-rule:nonzero;fill:rgb(10.980225%,38.822937%,68.626404%);fill-opacity:1;" d="M 91.296875 10.023438 C 53.101563 7.609375 27.15625 16.214844 26.382813 28.679688 C 25.609375 41.144531 50.78125 50.621094 88.976563 53.03125 C 127.175781 55.445313 158.28125 49.425781 159.054688 36.960938 C 159.832031 24.496094 129.496094 12.4375 91.296875 10.023438 "/>
<path style=" stroke:none;fill-rule:nonzero;fill:rgb(100%,96.076965%,42.744446%);fill-opacity:1;" d="M 48.363281 20.890625 L 50.8125 20.890625 L 50.8125 28.84375 L 48.363281 28.84375 Z M 47.621094 29.585938 L 51.554688 29.585938 L 51.554688 20.148438 L 47.621094 20.148438 L 47.621094 29.585938 "/>
<path style=" stroke:none;fill-rule:nonzero;fill:rgb(100%,96.076965%,42.744446%);fill-opacity:1;" d="M 54.699219 31.203125 L 46.09375 31.203125 L 46.09375 29.585938 L 43.734375 29.585938 L 43.734375 20.144531 L 46.003906 20.144531 L 46.003906 18.578125 L 51.554688 18.578125 L 51.554688 14.6875 L 54.699219 14.6875 Z M 50.8125 13.945313 L 50.8125 17.832031 L 45.261719 17.832031 L 45.261719 19.402344 L 42.992188 19.402344 L 42.992188 30.328125 L 45.347656 30.328125 L 45.347656 31.945313 L 55.441406 31.945313 L 55.441406 13.945313 L 50.8125 13.945313 "/>
<path style=" stroke:none;fill-rule:nonzero;fill:rgb(100%,96.076965%,42.744446%);fill-opacity:1;" d="M 63.261719 20.980469 L 65.742188 20.980469 L 65.742188 23.359375 L 63.261719 23.359375 Z M 62.519531 24.101563 L 66.484375 24.101563 L 66.484375 20.238281 L 62.519531 20.238281 L 62.519531 24.101563 "/>
<path style=" stroke:none;fill-rule:nonzero;fill:rgb(100%,96.076965%,42.744446%);fill-opacity:1;" d="M 69.597656 25.675781 L 62.519531 25.675781 L 62.519531 29.511719 L 68.058594 29.511719 L 68.058594 31.214844 L 60.980469 31.214844 L 60.980469 29.574219 L 59.40625 29.574219 L 59.40625 20.171875 L 60.980469 20.171875 L 60.980469 18.597656 L 68.023438 18.597656 L 68.023438 20.203125 L 69.597656 20.203125 Z M 68.765625 19.460938 L 68.765625 17.855469 L 60.238281 17.855469 L 60.238281 19.429688 L 58.664063 19.429688 L 58.664063 30.320313 L 60.238281 30.320313 L 60.238281 31.957031 L 68.800781 31.957031 L 68.800781 28.765625 L 63.261719 28.765625 L 63.261719 26.417969 L 70.339844 26.417969 L 70.339844 19.460938 L 68.765625 19.460938 "/>
<path style=" stroke:none;fill-rule:nonzero;fill:rgb(100%,96.076965%,42.744446%);fill-opacity:1;" d="M 84.539063 32 L 77.527344 32 L 77.527344 37.472656 L 83 37.472656 L 83 39.078125 L 77.527344 39.078125 L 77.527344 46.910156 L 73.5625 46.910156 L 73.5625 30.394531 L 84.539063 30.394531 Z M 72.820313 29.652344 L 72.820313 47.652344 L 78.269531 47.652344 L 78.269531 39.820313 L 83.742188 39.820313 L 83.742188 36.730469 L 78.269531 36.730469 L 78.269531 32.742188 L 85.28125 32.742188 L 85.28125 29.652344 L 72.820313 29.652344 "/>
<path style=" stroke:none;fill-rule:nonzero;fill:rgb(100%,96.076965%,42.744446%);fill-opacity:1;" d="M 99.480469 31.96875 L 92.433594 31.96875 L 92.433594 37.40625 L 97.90625 37.40625 L 97.90625 39.046875 L 92.433594 39.046875 L 92.433594 45.269531 L 99.480469 45.269531 L 99.480469 46.910156 L 88.503906 46.910156 L 88.503906 30.363281 L 99.480469 30.363281 Z M 87.757813 29.617188 L 87.757813 47.652344 L 100.222656 47.652344 L 100.222656 44.527344 L 93.179688 44.527344 L 93.179688 39.789063 L 98.648438 39.789063 L 98.648438 36.664063 L 93.179688 36.664063 L 93.179688 32.710938 L 100.222656 32.710938 L 100.222656 29.617188 L 87.757813 29.617188 "/>
<path style=" stroke:none;fill-rule:nonzero;fill:rgb(100%,96.076965%,42.744446%);fill-opacity:1;" d="M 114.421875 31.96875 L 107.375 31.96875 L 107.375 37.40625 L 112.847656 37.40625 L 112.847656 39.046875 L 107.375 39.046875 L 107.375 45.269531 L 114.421875 45.269531 L 114.421875 46.910156 L 103.445313 46.910156 L 103.445313 30.363281 L 114.421875 30.363281 Z M 102.699219 29.617188 L 102.699219 47.652344 L 115.164063 47.652344 L 115.164063 44.527344 L 108.121094 44.527344 L 108.121094 39.789063 L 113.589844 39.789063 L 113.589844 36.664063 L 108.121094 36.664063 L 108.121094 32.710938 L 115.164063 32.710938 L 115.164063 29.617188 L 102.699219 29.617188 "/>
<path style=" stroke:none;fill-rule:nonzero;fill:rgb(100%,96.076965%,42.744446%);fill-opacity:1;" d="M 129.40625 33.5625 L 125.472656 33.5625 L 125.472656 32.054688 L 121.519531 32.054688 L 121.519531 35.898438 L 123.902344 35.898438 L 123.902344 37.515625 L 125.449219 37.515625 L 125.453125 39.855469 L 127.003906 39.855469 L 127.003906 41.382813 L 129.382813 41.382813 L 129.382813 45.402344 L 127.023438 45.402344 L 127.023438 46.953125 L 120.753906 46.953125 L 120.753906 45.335938 L 118.375 45.335938 L 118.375 43.019531 L 121.542969 43.019531 L 121.542969 44.570313 L 122.308594 44.570313 L 122.308594 45.359375 L 125.429688 45.359375 L 125.429688 44.570313 L 126.261719 44.570313 L 126.261719 41.425781 L 123.902344 41.425781 L 123.902344 39.089844 L 122.308594 39.089844 L 122.308594 37.523438 L 119.945313 37.523438 L 119.945313 35.921875 L 118.417969 35.921875 L 118.417969 31.988281 L 119.96875 31.988281 L 119.96875 30.394531 L 127.023438 30.394531 L 127.023438 31.988281 L 129.40625 31.988281 Z M 127.765625 31.246094 L 127.765625 29.652344 L 119.226563 29.652344 L 119.226563 31.246094 L 117.675781 31.246094 L 117.675781 36.664063 L 119.203125 36.664063 L 119.203125 38.269531 L 121.5625 38.269531 L 121.5625 39.832031 L 123.15625 39.832031 L 123.15625 42.167969 L 125.515625 42.167969 L 125.515625 43.828125 L 124.6875 43.828125 L 124.6875 44.613281 L 123.050781 44.613281 L 123.050781 43.828125 L 122.285156 43.828125 L 122.285156 42.277344 L 117.632813 42.277344 L 117.632813 46.078125 L 120.011719 46.078125 L 120.011719 47.695313 L 127.765625 47.695313 L 127.765625 46.144531 L 130.128906 46.144531 L 130.128906 40.640625 L 127.746094 40.640625 L 127.746094 39.109375 L 126.195313 39.109375 L 126.191406 36.773438 L 124.644531 36.773438 L 124.644531 35.15625 L 122.261719 35.15625 L 122.261719 32.796875 L 124.730469 32.796875 L 124.730469 34.304688 L 130.148438 34.304688 L 130.148438 31.246094 L 127.765625 31.246094 "/>
<path style=" stroke:none;fill-rule:nonzero;fill:rgb(100%,96.076965%,42.744446%);fill-opacity:1;" d="M 143.550781 32 L 140.40625 32 L 140.40625 46.910156 L 136.503906 46.910156 L 136.503906 32 L 132.539063 32 L 132.539063 30.394531 L 143.550781 30.394531 Z M 143.550781 29.652344 L 131.796875 29.652344 L 131.796875 32.742188 L 135.761719 32.742188 L 135.761719 47.652344 L 141.148438 47.652344 L 141.148438 32.742188 L 144.292969 32.742188 L 144.292969 29.652344 L 143.550781 29.652344 "/>
</g>
</svg>
